<?xml version="1.0" encoding="utf-8"?>
<!-- Generator: Adobe Illustrator 16.0.0, SVG Export Plug-In . SVG Version: 6.00 Build 0)  -->
<!DOCTYPE svg PUBLIC "-//W3C//DTD SVG 1.1//EN" "http://www.w3.org/Graphics/SVG/1.1/DTD/svg11.dtd">
<svg version="1.1" id="Layer_1" xmlns="http://www.w3.org/2000/svg" xmlns:xlink="http://www.w3.org/1999/xlink" x="0px" y="0px"
	 width="792px" height="612px" viewBox="0 0 792 612" enable-background="new 0 0 792 612" xml:space="preserve">
<g>
	<path d="M240.395,277.604v-1.81l2.372-1.186v-40.385l-2.372-1.186v-1.81h28.401c2.663,0,5.045,0.354,7.147,1.061
		c2.101,0.708,3.87,1.696,5.306,2.965c1.436,1.27,2.538,2.82,3.308,4.65c0.77,1.832,1.155,3.892,1.155,6.18
		c0,3.288-0.896,6.045-2.684,8.271c-1.79,2.227-4.12,3.86-6.991,4.9l11.423,15.355l3.246,1.186v1.81h-15.355v-1.81l1.498-1.249
		l-8.863-12.858H251.63v12.921l2.435,1.186v1.81H240.395z M267.11,253.448c1.414,0,2.725-0.146,3.933-0.437
		c1.206-0.291,2.257-0.749,3.152-1.373c0.895-0.624,1.592-1.394,2.091-2.31c0.499-0.915,0.749-1.998,0.749-3.246
		c0-1.165-0.25-2.185-0.749-3.059c-0.5-0.874-1.197-1.612-2.091-2.216c-0.895-0.603-1.946-1.051-3.152-1.342
		c-1.208-0.291-2.519-0.437-3.933-0.437h-15.48v14.419H267.11z"/>
	<path d="M308.307,277.604v-1.81l2.372-1.124v-35.642h-14.356l-1.748,3.558h-1.81l0.562-11.36h43.381l0.625,11.36h-1.81
		l-1.811-3.558h-14.169v35.579l2.372,1.186v1.81H308.307z"/>
	<path d="M341.014,277.604v-1.81l2.372-1.186v-40.385l-2.372-1.186v-1.81h13.607v1.81l-2.372,1.186v40.385l2.372,1.186v1.81H341.014
		z"/>
	<path d="M368.666,254.914c0,2.16,0.478,4.185,1.436,6.074c0.957,1.89,2.288,3.531,3.995,4.921c1.706,1.392,3.714,2.493,6.023,3.302
		s4.837,1.214,7.584,1.214c1.913,0,3.599-0.114,5.056-0.343c1.456-0.228,2.725-0.509,3.808-0.843
		c1.082-0.333,2.007-0.718,2.778-1.155c0.77-0.437,1.425-0.905,1.966-1.404l-0.562-2.622l1.373-1.061l8.739,10.424l-1.312,1.186
		l-2.496-1.124c-1.623,0.833-3.152,1.582-4.588,2.247c-1.436,0.666-2.913,1.217-4.432,1.654c-1.52,0.437-3.122,0.759-4.807,0.967
		c-1.686,0.208-3.527,0.312-5.524,0.312c-3.995,0-7.73-0.562-11.205-1.685c-3.475-1.124-6.471-2.715-8.988-4.775
		c-2.518-2.06-4.516-4.546-5.992-7.459c-1.478-2.912-2.216-6.138-2.216-9.675c0-3.412,0.634-6.617,1.904-9.613
		c1.269-2.996,3.141-5.607,5.618-7.833c2.475-2.226,5.565-3.984,9.269-5.274c3.704-1.29,8.01-1.935,12.921-1.935
		c2.163,0,4.234,0.242,6.211,0.724c1.976,0.482,3.754,1.027,5.336,1.636c1.581,0.608,2.902,1.206,3.964,1.792
		c1.062,0.587,1.779,1.006,2.153,1.258l2.372-0.944l1.373,1.196l-8.801,10.442l-1.373-1.186l0.624-2.684
		c-1.041-0.79-2.06-1.445-3.059-1.966c-0.999-0.52-2.019-0.937-3.059-1.249c-1.041-0.312-2.144-0.54-3.308-0.687
		c-1.166-0.146-2.414-0.218-3.745-0.218c-2.831,0-5.399,0.426-7.709,1.277s-4.307,2.014-5.992,3.489
		c-1.686,1.475-2.996,3.208-3.933,5.201C369.134,250.491,368.666,252.63,368.666,254.914z"/>
	<path d="M453.431,231.227H467.1v1.81l-2.371,1.186v24.343c0,3.787-0.729,6.971-2.185,9.55c-1.458,2.581-3.33,4.65-5.618,6.211
		c-2.289,1.561-4.797,2.674-7.521,3.339c-2.726,0.665-5.379,0.999-7.958,0.999c-2.581,0-5.244-0.333-7.99-0.999
		s-5.254-1.779-7.521-3.339c-2.269-1.561-4.13-3.63-5.587-6.211c-1.457-2.58-2.185-5.763-2.185-9.55v-24.343l-2.434-1.186v-1.81
		h13.669v1.807l-2.371,1.184v23.869c0,1.954,0.343,3.698,1.029,5.235s1.664,2.846,2.934,3.926c1.27,1.081,2.788,1.901,4.557,2.462
		c1.769,0.561,3.734,0.841,5.899,0.841c2.163,0,4.119-0.28,5.867-0.841c1.747-0.561,3.255-1.381,4.525-2.462
		c1.269-1.081,2.257-2.389,2.965-3.926c0.707-1.537,1.061-3.282,1.061-5.235v-23.869l-2.434-1.184V231.227z"/>
	<path d="M472.156,277.604v-1.81l2.434-1.186v-40.385l-2.434-1.186v-1.81h13.67v1.81l-2.372,1.186v35.267h25.903l1.249-3.558h1.747
		v11.672H472.156z"/>
	<path d="M550.055,231.227l22.971,43.381l3.059,1.186v1.81h-15.543v-1.81l1.873-1.186l-3.745-8.551h-25.654l-4.744,8.551
		l1.748,1.186v1.81h-14.544v-1.81l2.996-1.186l22.533-43.381H550.055z M545.374,240.465l-9.051,18.414h18.102L545.374,240.465z"/>
	<path d="M582.639,254.914c0,2.16,0.478,4.185,1.436,6.074c0.956,1.89,2.288,3.531,3.994,4.921c1.706,1.392,3.714,2.493,6.023,3.302
		s4.838,1.214,7.584,1.214c1.914,0,3.6-0.114,5.057-0.343c1.456-0.228,2.725-0.509,3.808-0.843c1.081-0.333,2.007-0.718,2.777-1.155
		c0.77-0.437,1.425-0.905,1.966-1.404l-0.562-2.622l1.373-1.061l8.739,10.424l-1.312,1.186l-2.496-1.124
		c-1.623,0.833-3.152,1.582-4.588,2.247c-1.436,0.666-2.913,1.217-4.432,1.654c-1.52,0.437-3.121,0.759-4.807,0.967
		c-1.686,0.208-3.526,0.312-5.524,0.312c-3.994,0-7.729-0.562-11.204-1.685s-6.471-2.715-8.988-4.775
		c-2.519-2.06-4.516-4.546-5.992-7.459c-1.478-2.912-2.216-6.138-2.216-9.675c0-3.412,0.634-6.617,1.903-9.613
		s3.142-5.607,5.618-7.833c2.476-2.226,5.565-3.984,9.27-5.274c3.703-1.29,8.01-1.935,12.921-1.935c2.163,0,4.233,0.242,6.21,0.724
		s3.755,1.027,5.337,1.636c1.581,0.608,2.902,1.206,3.964,1.792c1.062,0.587,1.779,1.006,2.153,1.258l2.372-0.944l1.373,1.196
		l-8.801,10.442l-1.373-1.186l0.624-2.684c-1.041-0.79-2.06-1.445-3.059-1.966c-0.999-0.52-2.019-0.937-3.059-1.249
		c-1.041-0.312-2.144-0.54-3.309-0.687c-1.165-0.146-2.413-0.218-3.745-0.218c-2.83,0-5.399,0.426-7.708,1.277
		c-2.31,0.852-4.308,2.014-5.993,3.489c-1.685,1.475-2.996,3.208-3.932,5.201C583.106,250.491,582.639,252.63,582.639,254.914z"/>
	<path d="M629.39,277.604v-1.81l2.372-1.186v-40.385l-2.372-1.186v-1.81h13.607v1.81l-2.372,1.186v40.385l2.372,1.186v1.81H629.39z"
		/>
	<path d="M676.078,230.416c4.12,0,7.906,0.646,11.36,1.935c3.454,1.291,6.439,3.049,8.957,5.274c2.518,2.227,4.494,4.837,5.93,7.833
		c1.437,2.996,2.154,6.201,2.154,9.613c0,3.537-0.718,6.763-2.154,9.675c-1.436,2.913-3.412,5.41-5.93,7.49
		c-2.518,2.082-5.503,3.683-8.957,4.806c-3.454,1.124-7.24,1.686-11.36,1.686c-3.994,0-7.719-0.562-11.173-1.686
		c-3.454-1.124-6.45-2.725-8.988-4.806c-2.539-2.08-4.536-4.577-5.992-7.49c-1.457-2.912-2.185-6.138-2.185-9.675
		c0-3.412,0.676-6.617,2.028-9.613c1.352-2.996,3.267-5.607,5.743-7.833c2.475-2.226,5.461-3.984,8.957-5.274
		C667.964,231.061,671.834,230.416,676.078,230.416z M676.078,238.655c-2.746,0-5.274,0.427-7.584,1.28
		c-2.31,0.854-4.307,2.019-5.992,3.496c-1.685,1.478-3.007,3.214-3.963,5.212c-0.958,1.998-1.437,4.141-1.437,6.429
		c0,2.164,0.479,4.193,1.437,6.086c0.956,1.894,2.288,3.537,3.994,4.931c1.706,1.395,3.714,2.497,6.023,3.308
		s4.816,1.217,7.521,1.217c2.747,0,5.264-0.384,7.553-1.155c2.288-0.77,4.276-1.831,5.961-3.184
		c1.686-1.352,3.006-2.975,3.964-4.869c0.957-1.893,1.436-4.004,1.436-6.335c0-2.288-0.468-4.432-1.404-6.429
		s-2.247-3.734-3.933-5.212c-1.685-1.477-3.673-2.642-5.961-3.496C681.404,239.082,678.866,238.655,676.078,238.655z
		 M685.691,221.053l-16.979,8.364l-2.247-2.747l15.168-9.737L685.691,221.053z"/>
	<path d="M709.909,277.604v-1.81l2.372-1.186v-40.385l-2.372-1.186v-1.81h11.048l29.274,34.019v-31.022l-2.371-1.186v-1.81h13.42
		v1.81l-2.435,1.186v43.381h-10.112l-27.776-32.521v29.524l2.372,1.186v1.81H709.909z"/>
</g>
<g>
	<path d="M160.792,358.072v-1.811l2.372-1.186v-40.385l-2.372-1.188v-1.811h13.607v1.811l-2.372,1.188v40.385l2.372,1.186v1.811
		H160.792z"/>
	<path d="M217.031,311.693h13.67v1.811l-2.372,1.188v24.342c0,3.787-0.729,6.971-2.185,9.551c-1.457,2.58-3.33,4.65-5.618,6.211
		c-2.289,1.561-4.796,2.674-7.521,3.34c-2.726,0.664-5.379,0.998-7.958,0.998c-2.581,0-5.243-0.334-7.99-0.998
		c-2.747-0.666-5.254-1.779-7.521-3.34c-2.269-1.561-4.13-3.631-5.586-6.211c-1.457-2.58-2.185-5.764-2.185-9.551v-24.342
		l-2.435-1.188v-1.811H193v1.809l-2.372,1.184v23.869c0,1.953,0.343,3.697,1.03,5.234c0.687,1.537,1.664,2.846,2.934,3.928
		c1.269,1.08,2.787,1.9,4.557,2.461c1.768,0.561,3.734,0.84,5.898,0.84c2.163,0,4.12-0.279,5.867-0.84
		c1.748-0.561,3.256-1.381,4.525-2.461c1.269-1.082,2.257-2.391,2.965-3.928c0.707-1.537,1.061-3.281,1.061-5.234v-23.869
		l-2.435-1.184V311.693z"/>
	<path d="M236.318,311.693h23.844c4.785,0,8.946,0.594,12.484,1.779c3.536,1.188,6.46,2.809,8.77,4.869s4.016,4.516,5.119,7.365
		c1.102,2.852,1.654,5.92,1.654,9.207c0,3.455-0.666,6.596-1.997,9.426c-1.333,2.83-3.215,5.264-5.649,7.303
		c-2.435,2.039-5.379,3.621-8.833,4.744c-3.455,1.123-7.303,1.686-11.547,1.686h-23.844v-1.811l2.372-1.186v-40.385l-2.372-1.188
		V311.693z M247.554,319.496v30.461h12.796c2.872,0,5.462-0.354,7.771-1.061c2.309-0.707,4.285-1.717,5.93-3.027
		c1.643-1.311,2.902-2.871,3.776-4.682c0.874-1.811,1.311-3.84,1.311-6.086c0-2.164-0.396-4.191-1.186-6.086
		c-0.791-1.893-1.977-3.547-3.558-4.963c-1.582-1.414-3.538-2.527-5.868-3.338c-2.331-0.812-5.056-1.219-8.177-1.219H247.554z"/>
	<path d="M325.827,311.693l22.97,43.383l3.059,1.186v1.811h-15.542v-1.811l1.873-1.186l-3.745-8.553h-25.654l-4.744,8.553
		l1.748,1.186v1.811h-14.544v-1.811l2.996-1.186l22.534-43.383H325.827z M321.145,320.932l-9.051,18.414h18.102L321.145,320.932z"/>
	<path d="M355.538,311.693h23.844c4.785,0,8.946,0.594,12.484,1.779c3.536,1.188,6.46,2.809,8.771,4.869
		c2.309,2.061,4.016,4.516,5.117,7.365c1.104,2.852,1.654,5.92,1.654,9.207c0,3.455-0.666,6.596-1.996,9.426
		c-1.332,2.83-3.215,5.264-5.65,7.303c-2.434,2.039-5.378,3.621-8.832,4.744c-3.455,1.123-7.303,1.686-11.547,1.686h-23.844v-1.811
		l2.372-1.186v-40.385l-2.372-1.188V311.693z M366.773,319.496v30.461h12.796c2.872,0,5.462-0.354,7.771-1.061
		c2.309-0.707,4.285-1.717,5.93-3.027c1.643-1.311,2.902-2.871,3.776-4.682c0.875-1.811,1.311-3.84,1.311-6.086
		c0-2.164-0.395-4.191-1.186-6.086c-0.791-1.893-1.977-3.547-3.558-4.963c-1.582-1.414-3.538-2.527-5.868-3.338
		c-2.331-0.812-5.056-1.219-8.177-1.219H366.773z"/>
	<path d="M445.047,311.693l22.971,43.383l3.059,1.186v1.811h-15.543v-1.811l1.873-1.186l-3.746-8.553h-25.654l-4.744,8.553
		l1.748,1.186v1.811h-14.543v-1.811l2.996-1.186l22.533-43.383H445.047z M440.365,320.932l-9.051,18.414h18.102L440.365,320.932z"/>
	<path d="M474.758,358.072v-1.811l2.373-1.186v-40.385l-2.373-1.188v-1.811h11.049l29.273,34.02v-31.021l-2.371-1.188v-1.811h13.42
		v1.811l-2.434,1.188v43.381h-10.113l-27.775-32.521v29.525l2.371,1.186v1.811H474.758z"/>
	<path d="M564.328,311.693l22.971,43.383l3.059,1.186v1.811h-15.543v-1.811l1.873-1.186l-3.744-8.553h-25.654l-4.744,8.553
		l1.748,1.186v1.811h-14.545v-1.811l2.996-1.186l22.533-43.383H564.328z M559.648,320.932l-9.051,18.414h18.102L559.648,320.932z"/>
</g>
<g>
	<path d="M238.252,415.436v-0.554l0.726-0.363v-12.359l-0.726-0.362v-0.555h7.354c1.872,0,3.302,0.366,4.289,1.099
		s1.48,1.882,1.48,3.448c0,0.776-0.15,1.465-0.449,2.062c-0.299,0.6-0.716,1.099-1.251,1.5c-0.535,0.401-1.172,0.704-1.91,0.907
		c-0.739,0.204-1.547,0.306-2.426,0.306h-3.648v3.954l0.745,0.363v0.554H238.252z M245.587,408.043c0.458,0,0.885-0.041,1.28-0.124
		c0.395-0.083,0.736-0.213,1.022-0.392c0.287-0.179,0.513-0.411,0.678-0.697s0.249-0.634,0.249-1.041
		c0-0.395-0.083-0.729-0.249-1.003c-0.166-0.273-0.392-0.497-0.678-0.669c-0.286-0.172-0.627-0.296-1.022-0.372
		c-0.395-0.076-0.821-0.114-1.28-0.114h-3.896v4.412H245.587z"/>
	<path d="M257.354,404.853l5.12,9.647l0.726,0.382v0.554h-3.801V414.9l0.382-0.382l-0.726-1.624h-5.425l-0.936,1.624l0.325,0.382
		v0.535h-3.553v-0.573l0.688-0.344l5.005-9.666H257.354z M256.227,407.451l-1.7,3.495h3.4L256.227,407.451z"/>
	<path d="M264.116,404.853h6.438c1.248,0,2.212,0.306,2.894,0.917c0.681,0.611,1.022,1.459,1.022,2.541
		c0,0.713-0.185,1.318-0.554,1.814c-0.369,0.497-0.859,0.879-1.471,1.146l2.388,3.247l0.745,0.363v0.554h-3.763v-0.554l0.268-0.363
		l-1.827-2.693h-3.292v2.693l0.554,0.363v0.554h-3.4v-0.554l0.516-0.363v-8.749l-0.516-0.362V404.853z M266.962,406.916v2.846h3.235
		c0.571,0,1.047-0.118,1.428-0.355c0.38-0.236,0.571-0.6,0.571-1.086c0-0.462-0.19-0.812-0.571-1.049
		c-0.381-0.236-0.856-0.355-1.428-0.355H266.962z"/>
	<path d="M284.116,404.853l5.12,9.647l0.726,0.382v0.554h-3.801V414.9l0.382-0.382l-0.726-1.624h-5.425l-0.936,1.624l0.325,0.382
		v0.535h-3.553v-0.573l0.688-0.344l5.005-9.666H284.116z M282.989,407.451l-1.7,3.495h3.4L282.989,407.451z"/>
	<path d="M298.557,415.436v-0.554l0.516-0.363v-8.749l-0.516-0.362v-0.555h3.381v0.555l-0.535,0.362v7.526h5.425l0.267-0.821h0.573
		v2.961H298.557z"/>
	<path d="M315.806,404.853l5.12,9.647l0.726,0.382v0.554h-3.801V414.9l0.382-0.382l-0.726-1.624h-5.425l-0.936,1.624l0.325,0.382
		v0.535h-3.553v-0.573l0.688-0.344l5.005-9.666H315.806z M314.679,407.451l-1.7,3.495h3.4L314.679,407.451z"/>
	<path d="M330.209,401.242h12.512v3.477h-0.554l-0.363-1.088h-8.156v3.285h7.087l0.363-0.745h0.554v3.764h-0.554l-0.363-0.727
		h-7.087v3.744h8.367l0.363-1.089h0.554v3.572h-12.722v-0.554l0.726-0.363v-12.359l-0.726-0.362V401.242z"/>
	<path d="M350.705,404.662c0.93,0,1.789,0.149,2.579,0.448c0.79,0.3,1.468,0.701,2.035,1.204c0.566,0.503,1.012,1.099,1.337,1.786
		s0.487,1.413,0.487,2.178c0,0.675-0.118,1.302-0.354,1.881c-0.236,0.58-0.563,1.105-0.984,1.576l1.127,1.013l0.535-0.229
		l0.458,0.439l-2.292,2.483l-0.42-0.401l0.133-0.592l-1.471-1.356c-0.942,0.395-2,0.592-3.171,0.592
		c-0.917,0-1.767-0.127-2.55-0.382s-1.461-0.621-2.034-1.099s-1.025-1.047-1.356-1.709s-0.497-1.401-0.497-2.216
		c0-0.765,0.153-1.49,0.458-2.178s0.738-1.283,1.299-1.786s1.235-0.904,2.025-1.204
		C348.839,404.812,349.724,404.662,350.705,404.662z M350.705,406.84c-0.586,0-1.124,0.092-1.614,0.276
		c-0.49,0.186-0.914,0.434-1.27,0.745c-0.357,0.312-0.634,0.676-0.831,1.089c-0.198,0.414-0.296,0.856-0.296,1.328
		c0,0.471,0.098,0.9,0.296,1.289c0.197,0.389,0.474,0.729,0.831,1.021c0.356,0.294,0.78,0.522,1.27,0.688
		c0.49,0.165,1.028,0.248,1.614,0.248c0.56,0,1.082-0.076,1.566-0.229c0.484-0.152,0.907-0.372,1.271-0.659
		c0.363-0.286,0.643-0.627,0.84-1.021c0.197-0.395,0.296-0.841,0.296-1.337c0-0.472-0.099-0.914-0.296-1.328
		c-0.198-0.413-0.475-0.776-0.831-1.089c-0.356-0.312-0.78-0.56-1.27-0.745C351.791,406.932,351.265,406.84,350.705,406.84z"/>
	<path d="M366.713,404.853h3.381v0.555l-0.535,0.362v5.292c0,0.866-0.169,1.595-0.506,2.187c-0.337,0.593-0.764,1.067-1.28,1.424
		s-1.086,0.611-1.709,0.764c-0.624,0.152-1.229,0.229-1.815,0.229c-0.599,0-1.21-0.077-1.833-0.229
		c-0.625-0.152-1.194-0.407-1.71-0.764s-0.942-0.831-1.28-1.424c-0.337-0.592-0.506-1.32-0.506-2.187v-5.292l-0.535-0.362v-0.555
		h3.4v0.555l-0.535,0.362v5.196c0,0.802,0.273,1.43,0.819,1.882c0.545,0.452,1.275,0.678,2.19,0.678
		c0.901,0,1.621-0.226,2.161-0.678c0.54-0.452,0.81-1.08,0.81-1.882v-5.196l-0.516-0.362V404.853z"/>
	<path d="M371.469,415.436v-0.554l0.535-0.363v-8.749l-0.535-0.362v-0.555h3.381v0.555l-0.516,0.362v8.749l0.516,0.363v0.554
		H371.469z"/>
	<path d="M376.455,404.853h5.444c1.082,0,2.025,0.134,2.827,0.401s1.464,0.637,1.986,1.108c0.522,0.471,0.911,1.031,1.166,1.681
		c0.254,0.649,0.382,1.356,0.382,2.12c0,0.777-0.15,1.49-0.449,2.14c-0.299,0.649-0.726,1.207-1.28,1.672
		c-0.554,0.465-1.223,0.824-2.006,1.079s-1.659,0.382-2.626,0.382h-5.444v-0.554l0.516-0.363v-8.749l-0.516-0.362V404.853z
		 M379.301,406.916v6.38h2.636c0.611,0,1.162-0.073,1.652-0.22c0.49-0.146,0.904-0.359,1.242-0.64
		c0.337-0.28,0.598-0.608,0.783-0.983c0.185-0.376,0.277-0.8,0.277-1.271c0-0.445-0.083-0.866-0.249-1.261s-0.411-0.745-0.735-1.051
		s-0.735-0.541-1.232-0.707c-0.497-0.165-1.076-0.248-1.738-0.248H379.301z"/>
	<path d="M395.824,404.853l5.119,9.647l0.727,0.382v0.554h-3.802V414.9l0.382-0.382l-0.726-1.624h-5.425l-0.936,1.624l0.325,0.382
		v0.535h-3.553v-0.573l0.688-0.344l5.005-9.666H395.824z M394.697,407.451l-1.7,3.495h3.4L394.697,407.451z"/>
	<path d="M402.587,404.853h5.443c1.083,0,2.025,0.134,2.827,0.401c0.803,0.268,1.465,0.637,1.987,1.108
		c0.521,0.471,0.91,1.031,1.165,1.681s0.382,1.356,0.382,2.12c0,0.777-0.149,1.49-0.449,2.14c-0.299,0.649-0.726,1.207-1.279,1.672
		s-1.223,0.824-2.006,1.079s-1.659,0.382-2.627,0.382h-5.443v-0.554l0.516-0.363v-8.749l-0.516-0.362V404.853z M405.433,406.916
		v6.38h2.636c0.611,0,1.162-0.073,1.652-0.22c0.49-0.146,0.904-0.359,1.242-0.64c0.337-0.28,0.599-0.608,0.783-0.983
		c0.185-0.376,0.277-0.8,0.277-1.271c0-0.445-0.083-0.866-0.249-1.261c-0.165-0.395-0.41-0.745-0.735-1.051
		c-0.324-0.306-0.735-0.541-1.231-0.707c-0.497-0.165-1.077-0.248-1.739-0.248H405.433z"/>
	<path d="M427.343,415.436v-0.554l0.554-0.382v-3.19l-4.336-5.54l-0.765-0.362v-0.555h3.878v0.555l-0.286,0.362l2.684,3.477
		l2.627-3.477l-0.306-0.362v-0.555h3.763v0.555l-0.783,0.362l-4.145,5.559v3.19l0.516,0.363v0.554H427.343z"/>
	<path d="M443.732,404.853h9.303v2.866h-0.592l-0.268-0.803h-5.578v2.063h4.795l0.268-0.535h0.554v2.961h-0.554l-0.268-0.516h-4.795
		v2.406h5.73l0.287-0.821h0.554v2.961h-9.437v-0.554l0.535-0.363v-8.749l-0.535-0.362V404.853z"/>
	<path d="M455.078,415.436v-0.554l0.516-0.363v-8.749l-0.516-0.362v-0.555h3.381v0.555l-0.534,0.362v7.526h5.425l0.268-0.821h0.572
		v2.961H455.078z"/>
	<path d="M472.919,401.242h7.298c1.464,0,2.737,0.182,3.82,0.545c1.082,0.363,1.977,0.859,2.684,1.49
		c0.707,0.63,1.229,1.382,1.566,2.254c0.337,0.872,0.506,1.812,0.506,2.817c0,1.058-0.203,2.019-0.611,2.885
		c-0.407,0.866-0.983,1.61-1.729,2.234s-1.646,1.108-2.703,1.452c-1.057,0.344-2.234,0.516-3.533,0.516h-7.298v-0.554l0.727-0.363
		v-12.359l-0.727-0.362V401.242z M476.357,403.631v9.321h3.916c0.879,0,1.672-0.108,2.379-0.324
		c0.706-0.217,1.312-0.525,1.814-0.927s0.888-0.879,1.155-1.433s0.401-1.175,0.401-1.862c0-0.662-0.121-1.283-0.363-1.862
		c-0.241-0.58-0.604-1.086-1.089-1.52c-0.483-0.433-1.082-0.773-1.795-1.021c-0.714-0.248-1.548-0.372-2.503-0.372H476.357z"/>
	<path d="M490.303,404.853h9.303v2.866h-0.592l-0.268-0.803h-5.578v2.063h4.795l0.268-0.535h0.554v2.961h-0.554l-0.268-0.516h-4.795
		v2.406h5.73l0.287-0.821h0.554v2.961h-9.437v-0.554l0.535-0.363v-8.749l-0.535-0.362V404.853z"/>
	<path d="M503.864,411.806l0.325,0.497l-0.172,0.516c0.127,0.115,0.264,0.232,0.41,0.354s0.318,0.223,0.516,0.306
		s0.417,0.149,0.659,0.2c0.242,0.052,0.528,0.077,0.859,0.077c0.191,0,0.424-0.02,0.697-0.058c0.274-0.038,0.538-0.102,0.793-0.191
		c0.255-0.089,0.475-0.21,0.659-0.362c0.185-0.153,0.277-0.338,0.277-0.555c0-0.292-0.176-0.534-0.525-0.726
		c-0.351-0.19-0.78-0.366-1.29-0.525c-0.509-0.159-1.063-0.318-1.662-0.478s-1.146-0.359-1.643-0.602
		c-0.509-0.241-0.91-0.544-1.203-0.907s-0.439-0.837-0.439-1.423c0-0.573,0.117-1.066,0.354-1.48
		c0.235-0.414,0.557-0.752,0.965-1.013c0.407-0.261,0.869-0.455,1.385-0.583c0.516-0.127,1.06-0.19,1.633-0.19
		c0.738,0,1.385,0.061,1.939,0.182c0.554,0.121,1.13,0.314,1.729,0.582l0.535-0.306l0.516,0.325l-1.854,2.846l-0.516-0.344
		l0.058-0.573c-0.293-0.216-0.652-0.392-1.079-0.524c-0.427-0.134-0.869-0.201-1.328-0.201c-0.203,0-0.42,0.025-0.649,0.076
		c-0.229,0.052-0.445,0.121-0.649,0.211c-0.204,0.089-0.372,0.197-0.506,0.324c-0.134,0.128-0.201,0.274-0.201,0.439
		c0,0.229,0.144,0.427,0.431,0.592c0.286,0.166,0.646,0.318,1.079,0.459c0.433,0.14,0.903,0.28,1.413,0.42
		c0.51,0.141,0.98,0.3,1.414,0.478c0.344,0.128,0.665,0.28,0.965,0.459c0.299,0.178,0.557,0.382,0.773,0.611
		c0.216,0.229,0.385,0.493,0.506,0.792c0.121,0.3,0.182,0.641,0.182,1.022c0,0.573-0.146,1.06-0.439,1.461s-0.669,0.723-1.127,0.965
		c-0.459,0.242-0.965,0.42-1.519,0.535c-0.554,0.114-1.105,0.172-1.652,0.172c-0.841,0-1.595-0.105-2.264-0.315
		s-1.303-0.519-1.9-0.927l-0.555,0.134l-0.382-0.42L503.864,411.806z"/>
	<path d="M519.892,404.853l5.119,9.647l0.727,0.382v0.554h-3.802V414.9l0.382-0.382l-0.726-1.624h-5.425l-0.937,1.624l0.325,0.382
		v0.535h-3.554v-0.573l0.688-0.344l5.005-9.666H519.892z M518.765,407.451l-1.7,3.495h3.4L518.765,407.451z"/>
	<path d="M526.653,404.853h6.438c1.247,0,2.212,0.306,2.894,0.917c0.681,0.611,1.021,1.459,1.021,2.541
		c0,0.713-0.185,1.318-0.554,1.814c-0.369,0.497-0.859,0.879-1.471,1.146l2.388,3.247l0.745,0.363v0.554h-3.763v-0.554l0.267-0.363
		l-1.826-2.693h-3.293v2.693l0.554,0.363v0.554h-3.399v-0.554l0.516-0.363v-8.749l-0.516-0.362V404.853z M529.499,406.916v2.846
		h3.235c0.571,0,1.047-0.118,1.428-0.355c0.381-0.236,0.571-0.6,0.571-1.086c0-0.462-0.19-0.812-0.571-1.049
		c-0.381-0.236-0.856-0.355-1.428-0.355H529.499z"/>
	<path d="M539.586,404.853h6.438c1.247,0,2.212,0.306,2.894,0.917c0.681,0.611,1.021,1.459,1.021,2.541
		c0,0.713-0.185,1.318-0.554,1.814c-0.369,0.497-0.859,0.879-1.471,1.146l2.388,3.247l0.745,0.363v0.554h-3.763v-0.554l0.267-0.363
		l-1.826-2.693h-3.293v2.693l0.554,0.363v0.554h-3.399v-0.554l0.516-0.363v-8.749l-0.516-0.362V404.853z M542.432,406.916v2.846
		h3.235c0.571,0,1.047-0.118,1.428-0.355c0.381-0.236,0.571-0.6,0.571-1.086c0-0.462-0.19-0.812-0.571-1.049
		c-0.381-0.236-0.856-0.355-1.428-0.355H542.432z"/>
	<path d="M557.942,404.662c0.93,0,1.789,0.149,2.579,0.448c0.789,0.3,1.468,0.701,2.034,1.204s1.013,1.099,1.337,1.786
		c0.325,0.688,0.487,1.413,0.487,2.178c0,0.814-0.162,1.554-0.487,2.216c-0.324,0.662-0.771,1.229-1.337,1.7
		c-0.566,0.471-1.245,0.837-2.034,1.098c-0.79,0.261-1.649,0.392-2.579,0.392c-0.904,0-1.751-0.127-2.54-0.382
		c-0.79-0.255-1.471-0.621-2.044-1.099s-1.025-1.047-1.356-1.709s-0.497-1.401-0.497-2.216c0-0.765,0.153-1.49,0.459-2.178
		s0.741-1.283,1.309-1.786c0.566-0.503,1.244-0.904,2.034-1.204C556.096,404.812,556.975,404.662,557.942,404.662z M557.942,406.84
		c-0.573,0-1.107,0.092-1.604,0.276c-0.496,0.186-0.92,0.434-1.271,0.745c-0.35,0.312-0.627,0.676-0.831,1.089
		c-0.203,0.414-0.305,0.856-0.305,1.328c0,0.471,0.102,0.9,0.305,1.289c0.204,0.389,0.481,0.729,0.831,1.021
		c0.351,0.294,0.774,0.522,1.271,0.688c0.497,0.165,1.031,0.248,1.604,0.248s1.102-0.076,1.586-0.229
		c0.483-0.152,0.904-0.372,1.261-0.659c0.356-0.286,0.64-0.627,0.85-1.021s0.315-0.841,0.315-1.337c0-0.472-0.103-0.914-0.306-1.328
		c-0.204-0.413-0.484-0.776-0.841-1.089c-0.356-0.312-0.78-0.56-1.27-0.745C559.047,406.932,558.516,406.84,557.942,406.84z"/>
	<path d="M565.66,415.436v-0.554l0.516-0.363v-8.749l-0.516-0.362v-0.555h3.381v0.555l-0.534,0.362v7.526h5.425l0.268-0.821h0.572
		v2.961H565.66z"/>
	<path d="M575.822,415.436v-0.554l0.516-0.363v-8.749l-0.516-0.362v-0.555h3.381v0.555l-0.534,0.362v7.526h5.425l0.268-0.821h0.572
		v2.961H575.822z"/>
	<path d="M592.192,404.662c0.93,0,1.789,0.149,2.579,0.448c0.789,0.3,1.468,0.701,2.034,1.204s1.013,1.099,1.337,1.786
		c0.325,0.688,0.487,1.413,0.487,2.178c0,0.814-0.162,1.554-0.487,2.216c-0.324,0.662-0.771,1.229-1.337,1.7
		c-0.566,0.471-1.245,0.837-2.034,1.098c-0.79,0.261-1.649,0.392-2.579,0.392c-0.904,0-1.751-0.127-2.54-0.382
		c-0.79-0.255-1.471-0.621-2.044-1.099s-1.025-1.047-1.356-1.709s-0.497-1.401-0.497-2.216c0-0.765,0.153-1.49,0.459-2.178
		s0.741-1.283,1.309-1.786c0.566-0.503,1.244-0.904,2.034-1.204C590.346,404.812,591.225,404.662,592.192,404.662z M592.192,406.84
		c-0.573,0-1.107,0.092-1.604,0.276c-0.496,0.186-0.92,0.434-1.271,0.745c-0.35,0.312-0.627,0.676-0.831,1.089
		c-0.203,0.414-0.305,0.856-0.305,1.328c0,0.471,0.102,0.9,0.305,1.289c0.204,0.389,0.481,0.729,0.831,1.021
		c0.351,0.294,0.774,0.522,1.271,0.688c0.497,0.165,1.031,0.248,1.604,0.248s1.102-0.076,1.586-0.229
		c0.483-0.152,0.904-0.372,1.261-0.659c0.356-0.286,0.64-0.627,0.85-1.021s0.315-0.841,0.315-1.337c0-0.472-0.103-0.914-0.306-1.328
		c-0.204-0.413-0.484-0.776-0.841-1.089c-0.356-0.312-0.78-0.56-1.27-0.745C593.297,406.932,592.766,406.84,592.192,406.84z"/>
	<path d="M617.655,401.242l7.029,13.276l0.937,0.363v0.554h-4.757v-0.554l0.573-0.363l-1.146-2.617h-7.852l-1.451,2.617l0.534,0.363
		v0.554h-4.45v-0.554l0.917-0.363l6.896-13.276H617.655z M616.223,404.069l-2.77,5.636h5.539L616.223,404.069z"/>
	<path d="M627.971,413.144c1.006,0,1.509,0.407,1.509,1.223c0,0.84-0.503,1.261-1.509,1.261c-1.031,0-1.547-0.421-1.547-1.261
		C626.424,413.551,626.939,413.144,627.971,413.144z"/>
	<path d="M641.399,408.491c0,0.661,0.146,1.281,0.439,1.859s0.7,1.08,1.223,1.506c0.521,0.426,1.136,0.763,1.843,1.011
		s1.48,0.372,2.321,0.372c0.585,0,1.102-0.035,1.547-0.105c0.446-0.07,0.834-0.156,1.165-0.258s0.614-0.22,0.851-0.354
		c0.235-0.134,0.436-0.277,0.602-0.43l-0.172-0.803l0.42-0.324l2.675,3.189l-0.401,0.363l-0.764-0.344
		c-0.497,0.255-0.965,0.484-1.404,0.688c-0.439,0.204-0.892,0.373-1.356,0.507c-0.465,0.133-0.955,0.231-1.471,0.296
		c-0.516,0.063-1.079,0.096-1.69,0.096c-1.223,0-2.366-0.173-3.429-0.517c-1.063-0.344-1.98-0.83-2.751-1.461
		c-0.771-0.63-1.382-1.392-1.834-2.282c-0.452-0.892-0.678-1.879-0.678-2.961c0-1.044,0.193-2.025,0.582-2.942
		s0.962-1.716,1.72-2.397c0.757-0.681,1.703-1.219,2.837-1.613c1.133-0.395,2.451-0.593,3.954-0.593c0.661,0,1.295,0.074,1.9,0.222
		c0.604,0.147,1.149,0.314,1.633,0.501c0.484,0.186,0.889,0.368,1.213,0.548c0.325,0.18,0.545,0.309,0.659,0.386l0.727-0.289
		l0.42,0.365l-2.693,3.196l-0.42-0.363l0.19-0.821c-0.318-0.242-0.63-0.442-0.936-0.602s-0.618-0.287-0.937-0.382
		c-0.318-0.096-0.656-0.166-1.013-0.21c-0.356-0.045-0.738-0.067-1.146-0.067c-0.866,0-1.652,0.131-2.359,0.391
		c-0.707,0.261-1.318,0.617-1.834,1.068s-0.917,0.981-1.203,1.592C641.543,407.138,641.399,407.793,641.399,408.491z"/>
	<path d="M657.178,413.144c1.006,0,1.509,0.407,1.509,1.223c0,0.84-0.503,1.261-1.509,1.261c-1.031,0-1.547-0.421-1.547-1.261
		C655.631,413.551,656.146,413.144,657.178,413.144z"/>
</g>
<polygon fill="#1EB156" points="179.891,277.604 237.336,277.604 161.37,201.01 132.491,229.576 "/>
<path fill="#FE82A4" d="M123.702,163.337l29.193,30.139L75.36,268.813c0,0-17.266,7.218-25.113-4.396
	c-7.848-11.613-4.395-21.972,0-26.681S123.702,163.337,123.702,163.337z"/>
<polygon fill="#6A9AD8" points="70.963,281.683 178.006,281.683 124.485,335.361 "/>
<polygon fill="#984B9D" points="13.833,281.683 57.779,281.683 172.669,397.827 151.009,420.114 "/>
<path fill="#FEA719" d="M158.544,426.079l21.032,22.915l57.445-59.328c0,0,10.359-12.242,0-21.659s-24.485,5.021-24.485,5.021
	L158.544,426.079z"/>
<circle fill="#1EB156" cx="699.59" cy="331.468" r="27.498"/>
</svg>
